<?xml version="1.0" encoding="UTF-8"?>
<svg version="1.1" xmlns="http://www.w3.org/2000/svg" width="50" height="50">
<path d="M0 0 C-0.47672491 2.97953069 -1.35063737 4.53532423 -3.046875 7.125 C-5.47635372 11.30904171 -5.31812937 14.72148266 -5 19.4375 C-4.78056389 26.08419834 -4.96440472 30.43742272 -9 36 C-12.58725233 39.68420509 -15.96085235 41.07615626 -21 42 C-25.69760058 41.92953599 -29.04356945 41.63762037 -33 39 C-33 38.01 -33 37.02 -33 36 C-30.08108702 34.34528743 -27.89910536 33.77534964 -24.5625 33.625 C-20.26948696 33.20840827 -17.95717833 32.31562419 -15 29 C-13.61462887 25.76746737 -13 23.51384107 -13 20 C-13.96421875 20.721875 -14.9284375 21.44375 -15.921875 22.1875 C-17.19755122 23.12549722 -18.47361317 24.06296999 -19.75 25 C-20.38421875 25.47695313 -21.0184375 25.95390625 -21.671875 26.4453125 C-22.6 27.12207031 -22.6 27.12207031 -23.546875 27.8125 C-24.11245117 28.23144531 -24.67802734 28.65039062 -25.26074219 29.08203125 C-27 30 -27 30 -31 30 C-29.35944238 25.83999222 -26.32745327 23.02151753 -23.22265625 19.921875 C-22.655504 19.35043762 -22.08835175 18.77900024 -21.50401306 18.19024658 C-20.3070649 16.98756873 -19.10750518 15.78748507 -17.90551758 14.58984375 C-16.06373559 12.75123346 -14.23570163 10.89967016 -12.40820312 9.046875 C-11.24299842 7.87939843 -10.07700927 6.71270413 -8.91015625 5.546875 C-8.36319595 4.99070496 -7.81623566 4.43453491 -7.25270081 3.86151123 C-3.34380742 0 -3.34380742 0 0 0 Z " fill="#000000" transform="translate(49,2)"/>
<path d="M0 0 C0.94746094 -0.01417969 1.89492188 -0.02835937 2.87109375 -0.04296875 C5.60751644 0.19135482 7.22678123 0.79048617 9.5625 2.1875 C8.5625 5.1875 8.5625 5.1875 6.77734375 6.32421875 C4.53327169 7.19889234 2.49949709 7.62551259 0.125 8 C-4.37279411 8.97229543 -6.78579961 10.25271877 -9.4375 14.1875 C-10.22463704 18.47488473 -9.90111402 21.49207897 -7.4375 25.1875 C-7.75938975 28.44136823 -8.91609138 30.02026191 -11.2734375 32.203125 C-11.84320313 32.73164062 -12.41296875 33.26015625 -13 33.8046875 C-13.598125 34.34351563 -14.19625 34.88234375 -14.8125 35.4375 C-15.69808594 36.26894531 -15.69808594 36.26894531 -16.6015625 37.1171875 C-21.05284021 41.1875 -21.05284021 41.1875 -24.4375 41.1875 C-23.85359588 37.75893477 -22.70591344 36.27270638 -20.3125 33.8125 C-17.15628431 29.82805749 -17.2322169 27.17316403 -17.75 22.1875 C-17.89050781 20.9809375 -18.03101563 19.774375 -18.17578125 18.53125 C-18.52564962 14.06128992 -17.98327424 10.89435371 -15.4375 7.1875 C-10.74294848 2.14971476 -6.97159589 0.04729712 0 0 Z " fill="#000000" transform="translate(25.4375,6.8125)"/>
</svg>
